<svg width="59" height="64" viewBox="0 0 59 64" fill="none" xmlns="http://www.w3.org/2000/svg">
<mask id="path-1-inside-1" fill="white">
<path d="M32 0C26.4618 -6.60425e-08 21.0184 1.43734 16.2021 4.17146C11.3859 6.90559 7.36166 10.8429 4.52303 15.5983C1.6844 20.3537 0.12855 25.7644 0.00762855 31.3013C-0.113293 36.8382 1.20486 42.3117 3.83317 47.1865C6.46148 52.0613 10.31 56.1705 15.0023 59.1123C19.6946 62.0541 25.07 63.7277 30.603 63.9695C36.1359 64.2113 41.6368 63.013 46.5679 60.4917C51.4989 57.9705 55.6912 54.2126 58.7347 49.5857L56.9878 48.4366C54.1431 52.7612 50.2248 56.2735 45.616 58.63C41.0071 60.9865 35.8656 62.1065 30.6942 61.8805C25.5229 61.6545 20.4986 60.0903 16.1129 57.3407C11.7273 54.5911 8.13024 50.7504 5.67368 46.1942C3.21711 41.6379 1.98509 36.5221 2.09811 31.347C2.21113 26.1719 3.66532 21.1147 6.31846 16.67C8.97161 12.2253 12.7329 8.54533 17.2344 5.98987C21.736 3.4344 26.8237 2.09098 32 2.09098V0Z"/>
</mask>
<path d="M32 0C26.4618 -6.60425e-08 21.0184 1.43734 16.2021 4.17146C11.3859 6.90559 7.36166 10.8429 4.52303 15.5983C1.6844 20.3537 0.12855 25.7644 0.00762855 31.3013C-0.113293 36.8382 1.20486 42.3117 3.83317 47.1865C6.46148 52.0613 10.31 56.1705 15.0023 59.1123C19.6946 62.0541 25.07 63.7277 30.603 63.9695C36.1359 64.2113 41.6368 63.013 46.5679 60.4917C51.4989 57.9705 55.6912 54.2126 58.7347 49.5857L56.9878 48.4366C54.1431 52.7612 50.2248 56.2735 45.616 58.63C41.0071 60.9865 35.8656 62.1065 30.6942 61.8805C25.5229 61.6545 20.4986 60.0903 16.1129 57.3407C11.7273 54.5911 8.13024 50.7504 5.67368 46.1942C3.21711 41.6379 1.98509 36.5221 2.09811 31.347C2.21113 26.1719 3.66532 21.1147 6.31846 16.67C8.97161 12.2253 12.7329 8.54533 17.2344 5.98987C21.736 3.4344 26.8237 2.09098 32 2.09098V0Z" stroke="#FF5F01" stroke-width="4" mask="url(#path-1-inside-1)"/>
</svg>
