<svg width="40" height="40" viewBox="0 0 40 40" fill="none" xmlns="http://www.w3.org/2000/svg">
<circle cx="20" cy="20" r="20" fill="#7E8385"/>
<path fill-rule="evenodd" clip-rule="evenodd" d="M14.7748 10.3035C14.7748 11.5593 13.8267 12.5756 12.3442 12.5756C10.9194 12.5756 9.97132 11.5593 10.0007 10.3035C9.97132 8.98669 10.9193 8 12.3726 8C13.8267 8 14.7463 8.98669 14.7748 10.3035ZM10.1199 28.9981V14.3705H14.6271V28.9971L10.1199 28.9981Z" fill="#F2F2F2"/>
<path fill-rule="evenodd" clip-rule="evenodd" d="M18.2398 19.0387C18.2398 17.2142 18.1802 15.6588 18.1206 14.3725H22.0356L22.2437 16.3764H22.3326C22.9258 15.4489 24.4084 14.0442 26.8106 14.0442C29.7757 14.0442 32 16.0185 32 20.3241V29H27.4927V20.8937C27.4927 19.0082 26.8408 17.7228 25.2097 17.7228C23.9637 17.7228 23.2229 18.5902 22.9268 19.4271C22.8076 19.7267 22.7489 20.1447 22.7489 20.5645V29H18.2416V19.0387H18.2398Z" fill="#F2F2F2"/>
</svg>
