<svg width="40" height="40" viewBox="0 0 40 40" fill="none" xmlns="http://www.w3.org/2000/svg">
<circle cx="20" cy="20" r="20" fill="#7E8385"/>
<path fill-rule="evenodd" clip-rule="evenodd" d="M19.7218 26.9451H21.2758C21.2758 26.9451 21.7454 26.8999 21.9856 26.6739C22.2068 26.4658 22.1987 26.0756 22.1987 26.0756C22.1987 26.0756 22.1688 24.2486 23.1365 23.9786C24.0906 23.7134 25.3162 25.745 26.6137 26.5264C27.5963 27.1176 28.3414 26.9879 28.3414 26.9879L31.8131 26.9451C31.8131 26.9451 33.629 26.8464 32.7686 25.5951C32.698 25.4928 32.2664 24.6697 30.1872 22.9771C28.0102 21.206 28.302 21.4927 30.9241 18.4299C32.5216 16.5648 33.1594 15.4253 32.9599 14.9376C32.7699 14.4726 31.5946 14.5951 31.5946 14.5951L27.6858 14.6165C27.6858 14.6165 27.3954 14.582 27.181 14.695C26.9706 14.8056 26.8362 15.0625 26.8362 15.0625C26.8362 15.0625 26.2174 16.5065 25.3922 17.734C23.6509 20.3246 22.9546 20.4614 22.671 20.3009C22.0087 19.9262 22.1743 18.795 22.1743 17.9909C22.1743 15.48 22.6086 14.4333 21.3287 14.1621C20.9039 14.0717 20.5904 14.0134 19.5033 14.0027C18.1081 13.9908 16.9273 14.0063 16.2596 14.2941C15.8144 14.4844 15.471 14.9103 15.6814 14.9352C15.9393 14.965 16.5242 15.0732 16.835 15.4431C17.2354 15.9213 17.2218 16.993 17.2218 16.993C17.2218 16.993 17.4525 19.9488 16.6844 20.3151C16.1578 20.5673 15.4344 20.0535 13.8831 17.7019C13.0878 16.4982 12.4879 15.1672 12.4879 15.1672C12.4879 15.1672 12.3725 14.9186 12.1663 14.7854C11.9152 14.6236 11.5664 14.5725 11.5664 14.5725L7.84764 14.5963C7.84764 14.5963 7.28983 14.6093 7.08489 14.8222C6.90302 15.0114 7.06996 15.4027 7.06996 15.4027C7.06996 15.4027 9.97844 21.3666 13.271 24.3712C16.2921 27.1259 19.7218 26.9451 19.7218 26.9451Z" fill="#F2F2F2"/>
</svg>
